# xmcd CD database file
#
# Track frame offsets:
#	150
#	16712
#	31651
#	43571
#	51753
#	65775
#	86061
#	95877
#	106688
#	133584
#	147898
#	159360
#	171897
#	188190
#	202990
#	214873
#	223069
#	236931
#	257195
#	266935
#	277856
#	304742
#	319062
#	330461
#
# Disc length: 4566 seconds
#
# Revision: 5
# Processed by: cddbd v1.4PL0 Copyright (c) Steve Scherf et al.
# Submitted via: CDex 1.50
#
DISCID=6011d418
DTITLE=John Mayall and The Bluesbreakers - Bluesbreakers and 12
DYEAR=1900
DGENRE=Blues
TTITLE0=All Your Love
TTITLE1=Hideaway
TTITLE2=Little Girl
TTITLE3=Another Man
TTITLE4=Double Crossing Time
TTITLE5=What'd I Say
TTITLE6=Key To Love
TTITLE7=Parchman Farm
TTITLE8=Have You Heard
TTITLE9=Ramblin' On My Mind
TTITLE10=Steppin' Out
TTITLE11=It Ain't Right
TTITLE12=All Your Love 
TTITLE13=Hideaway 
TTITLE14=Little Girl 
TTITLE15=Another Man 
TTITLE16=Double Crossing Time
TTITLE17=What'd I Say
TTITLE18=Key To Love
TTITLE19=Parchman Farm
TTITLE20=Have You Heard
TTITLE21=Ramblin' On My Mind
TTITLE22=Steppin' Out
TTITLE23=It Ain't Right (2)
EXTD=
EXTT0=
EXTT1=
EXTT2=
EXTT3=
EXTT4=
EXTT5=
EXTT6=
EXTT7=
EXTT8=
EXTT9=
EXTT10=
EXTT11=
EXTT12=
EXTT13=
EXTT14=
EXTT15=
EXTT16=
EXTT17=
EXTT18=
EXTT19=
EXTT20=
EXTT21=
EXTT22=
EXTT23=
PLAYORDER=
